# Blender 3.4.1
# www.blender.org
mtllib chair_02.mtl
o chair_02
v -1.884188 2.793718 0.883757
v 1.715589 -0.001905 0.920509
v 1.713659 -0.001905 0.987458
v -1.692897 2.983158 0.822266
v 1.904950 0.187535 0.925967
v 1.903021 0.187535 0.992916
v -1.882258 2.793718 0.816808
v -1.694826 2.983158 0.889215
v -0.828474 1.982514 0.847181
v -0.830404 0.457096 0.914130
v -0.828474 0.457096 0.847181
v -1.098200 0.457096 0.906411
v -1.096270 2.196841 0.839462
v -1.096270 0.457096 0.839462
v -2.013318 0.275968 0.746025
v 1.773795 1.265300 0.855182
v -1.944008 0.017189 0.748023
v -2.015247 0.275968 0.812974
v 1.771866 1.265300 0.922131
v 1.702556 1.524078 0.920134
v -1.945938 0.017189 0.814972
v 1.704486 1.524078 0.853185
v -0.830404 1.982514 0.914130
v 0.642475 1.875351 0.956583
v 0.640545 0.991257 1.023532
v 0.642475 0.991257 0.956583
v 0.372749 1.875351 1.015814
v 0.372749 0.991257 1.015814
v 0.372749 0.991257 1.015814
v 0.372749 1.875351 1.015814
v 0.640545 1.875351 1.023532
v 0.770970 1.955724 1.147900
v -1.103603 1.875351 1.093869
v 0.770970 1.875351 1.147900
v -1.098200 1.955724 0.906411
v 0.776373 1.875351 0.960443
v -1.098200 1.875351 0.906411
v -1.103603 1.955724 1.093869
v 0.776373 1.955724 0.960443
v -1.017089 0.591050 0.881947
v -0.990846 0.483887 -0.028559
v -1.017089 0.483887 0.881947
v -0.909971 0.483887 0.885035
v -0.883727 0.591050 -0.025472
v -0.883727 0.483887 -0.025472
v -0.990846 0.591050 -0.028559
v -1.897123 0.241117 0.762775
v -1.873581 0.133954 -0.054003
v -1.897123 0.133954 0.762775
v -1.790005 0.133954 0.765863
v -1.766463 0.241117 -0.050915
v -1.766463 0.133954 -0.050915
v -1.873581 0.241117 -0.054003
v 1.634092 0.241116 0.958363
v 1.660336 0.133953 0.047856
v 1.634092 0.133953 0.958363
v 1.741211 0.133953 0.961451
v 1.767455 0.241116 0.050944
v 1.767455 0.133953 0.050944
v 1.660336 0.241116 0.047856
v 1.583235 1.419909 0.863091
v 1.606777 1.312746 0.046313
v 1.583235 1.312746 0.863091
v 1.690353 1.312746 0.866178
v 1.713895 1.419909 0.049400
v 1.713895 1.312746 0.049400
v 1.606777 1.419909 0.046313
v -1.740139 2.866609 0.861107
v -1.713895 2.759446 -0.049400
v -1.740139 2.759446 0.861107
v -1.633020 2.759446 0.864194
v -1.606776 2.866609 -0.046313
v -1.606776 2.759446 -0.046313
v -1.713895 2.866609 -0.049400
v 1.765761 -0.001905 -0.820165
v -1.830157 2.793718 -0.990816
v 1.767690 -0.001905 -0.887114
v -1.642725 2.983158 -0.918409
v -1.832086 2.793718 -0.923867
v 1.957052 0.187535 -0.881656
v 1.955122 0.187535 -0.814707
v -1.640795 2.983158 -0.985358
v -0.776373 0.457096 -0.960443
v -0.778302 1.982514 -0.893494
v -0.778302 0.457096 -0.893494
v -1.046098 0.457096 -0.901212
v -1.044168 2.196841 -0.968161
v -1.044169 0.457096 -0.968161
v -1.046098 2.196841 -0.901212
v -1.967005 0.275968 -0.860751
v 1.820108 1.265300 -0.751594
v 1.750798 1.524078 -0.753592
v 1.822038 1.265300 -0.818543
v -1.965075 0.275968 -0.927700
v 1.752728 1.524078 -0.820541
v -1.897696 0.017189 -0.858754
v -1.895766 0.017189 -0.925703
v -0.776372 1.982514 -0.960443
v 0.698436 0.991257 -0.984939
v 0.696506 1.875351 -0.917989
v 0.696506 0.991257 -0.917989
v 0.430640 0.991257 -0.992657
v 0.430640 1.875351 -0.992657
v 0.430640 0.991257 -0.992657
v 0.430640 1.875351 -0.992657
v 0.698436 1.875351 -0.984939
v -1.038765 1.875351 -1.155619
v 0.835808 1.955724 -1.101587
v 0.835808 1.875351 -1.101587
v 0.830404 1.875351 -0.914130
v -1.044168 1.955724 -0.968161
v -1.044168 1.875351 -0.968161
v -1.038765 1.955724 -1.155619
v 0.830404 1.955724 -0.914130
v -0.964602 0.591050 -0.939066
v -0.964602 0.483887 -0.939066
v -0.857483 0.483887 -0.935979
v -1.850039 0.241117 -0.870781
v -1.850039 0.133954 -0.870781
v -1.742920 0.133954 -0.867693
v 1.686580 0.241116 -0.862650
v 1.686580 0.133953 -0.862650
v 1.793698 0.133953 -0.859563
v 1.630319 1.419909 -0.770466
v 1.630319 1.312746 -0.770466
v 1.737438 1.312746 -0.767378
v -1.687651 2.866609 -0.959907
v -1.687651 2.759446 -0.959907
v -1.580532 2.759446 -0.956819
v -1.362772 2.354995 -0.762930
v -1.681176 2.813027 0.675193
v -1.404454 2.354995 0.683169
v 1.681177 1.366327 -0.675193
v 1.362773 1.149412 0.762930
v 1.639495 1.366327 0.770906
v 1.127732 1.054781 -0.691145
v 1.086050 1.054781 0.754954
v 0.809327 1.053894 0.746978
v 0.574286 1.099670 -0.707097
v 0.532605 1.099670 0.739002
v 0.255882 1.178749 0.731026
v 0.297564 1.178749 -0.715073
v -0.020840 1.285955 0.723050
v 0.020841 1.285955 -0.723050
v -0.297563 1.419866 0.715073
v -0.255882 1.419866 -0.731026
v -0.574286 1.581904 0.707097
v -0.532604 1.581904 -0.739002
v -0.851008 1.777245 0.699121
v -1.086050 2.019248 -0.754954
v -1.127731 2.019248 0.691145
v -1.704094 2.799169 0.674533
v -1.384619 2.339506 -0.763560
v -1.426300 2.339506 0.682539
v 1.656013 1.345239 0.771382
v 1.417222 1.125862 -0.682801
v 1.697694 1.345239 -0.674717
v 1.375541 1.125862 0.763298
v 1.132165 1.028360 -0.691017
v 0.807178 1.027193 0.746916
v 1.090484 1.028357 0.755082
v 0.526733 1.073531 0.738832
v 0.848860 1.027193 -0.699183
v 0.247359 1.153351 0.730780
v 0.568415 1.073531 -0.707267
v -0.031516 1.261384 0.722742
v 0.289040 1.153351 -0.715319
v -0.310166 1.396227 0.714710
v 0.010165 1.261384 -0.723357
v -0.588783 1.559380 0.706680
v -0.268485 1.396227 -0.731389
v -0.867562 1.756189 0.698644
v -0.547102 1.559380 -0.739420
v -1.146936 2.000580 0.690592
v -0.825881 1.756189 -0.747455
v -1.105255 2.000580 -0.755507
v -1.098200 2.196841 0.906411
v -0.909971 0.591050 0.885035
v -1.790005 0.241117 0.765863
v 1.741211 0.241116 0.961451
v 1.690353 1.419909 0.866178
v -1.633020 2.866609 0.864194
v -0.857483 0.591050 -0.935979
v -1.742920 0.241117 -0.867693
v 1.793698 0.241116 -0.859563
v 1.737438 1.419909 -0.767378
v -1.580532 2.866609 -0.956819
v -1.639495 2.813027 -0.770905
v 1.404454 1.149412 -0.683169
v 0.851009 1.053894 -0.699121
v -0.809327 1.777245 -0.746978
v -1.662413 2.799169 -0.771567
vn -0.8354 -0.0513 0.5472
vn 0.0675 -0.8100 -0.5825
vn 0.0338 -0.8100 0.5854
vn -0.0339 0.8100 -0.5854
vn 0.8354 0.0513 -0.5472
vn 0.8025 0.0513 0.5944
vn -0.8025 -0.0513 -0.5944
vn -0.0675 0.8100 0.5825
vn 0.7238 0.3394 -0.6008
vn 0.5605 -0.5774 0.5937
vn 0.5937 -0.5774 -0.5605
vn -0.5937 -0.5773 0.5605
vn -0.3458 0.7528 -0.5601
vn -0.5605 -0.5774 -0.5937
vn -0.7003 0.3850 -0.6011
vn 0.7338 -0.3850 -0.5598
vn -0.3705 -0.7214 -0.5851
vn -0.7338 0.3850 0.5598
vn 0.7003 -0.3850 0.6011
vn 0.3705 0.7214 0.5851
vn -0.4036 -0.7214 0.5628
vn 0.4036 0.7214 -0.5628
vn 0.6880 0.3394 0.6415
vn 0.5261 0.5656 -0.6352
vn 0.5261 -0.5655 -0.6352
vn 0.5606 -0.5774 0.5936
vn 0.2051 -0.0000 -0.9787
vn -0.1804 -0.1523 0.9717
vn 0.5605 0.5774 0.5937
vn -0.5937 -0.5774 0.5605
vn -0.5605 0.5774 -0.5937
vn 0.5937 -0.5773 -0.5605
vn -0.5605 -0.5773 -0.5937
vn -0.5937 0.5773 0.5605
vn 0.5937 0.5774 -0.5605
vn -0.7068 0.7071 -0.0204
vn -0.7068 -0.7071 -0.0204
vn 0.7068 -0.7071 0.0204
vn 0.7068 0.7071 0.0204
vn 0.0339 -0.8100 0.5854
vn -0.0338 0.8100 -0.5854
vn -0.3775 0.7528 0.5393
vn 0.4886 0.5655 0.6644
vn 0.4886 -0.5655 0.6645
vn -0.1176 -0.0000 0.9931
vn 0.5938 -0.5774 -0.5604
vn -0.0284 0.1540 -0.9877
vn 0.4887 -0.5655 0.6644
vn -0.5937 0.5774 0.5605
vn 0.8155 0.5783 0.0235
vn 0.8555 0.5173 0.0247
vn -0.6165 0.7871 -0.0178
vn -0.4766 0.8790 -0.0137
vn -0.1655 0.9862 -0.0048
vn 0.0802 0.9968 0.0023
vn 0.2192 0.9757 0.0063
vn 0.3181 0.9480 0.0092
vn 0.3984 0.9171 0.0115
vn 0.4705 0.8823 0.0136
vn 0.5411 0.8408 0.0156
vn 0.6179 0.7860 0.0178
vn 0.7169 0.6968 0.0207
vn -0.8554 -0.5174 -0.0247
vn -0.8155 -0.5783 -0.0235
vn 0.6157 -0.7878 0.0177
vn 0.4762 -0.8793 0.0137
vn 0.4762 -0.8792 0.0137
vn 0.1659 -0.9861 0.0048
vn -0.0797 -0.9968 -0.0023
vn -0.2191 -0.9757 -0.0063
vn -0.3181 -0.9480 -0.0092
vn -0.3984 -0.9171 -0.0115
vn -0.4705 -0.8823 -0.0136
vn -0.5411 -0.8408 -0.0156
vn -0.6180 -0.7860 -0.0178
vn -0.7170 -0.6968 -0.0207
vt 0.514816 0.000355
vt 0.501492 0.010497
vt 0.514816 0.702213
vt 0.513566 0.712302
vt 0.502742 0.702265
vt 0.449079 0.015693
vt 0.553922 0.015442
vt 0.450329 0.707461
vt 0.555172 0.707211
vt 0.462404 0.707409
vt 0.553922 0.717300
vt 0.513566 0.010444
vt 0.555172 0.005353
vt 0.461154 0.015641
vt 0.000355 0.733790
vt 0.086528 0.692374
vt 0.322349 0.682020
vt 0.363766 0.744145
vt 0.322349 0.692374
vt 0.363766 0.733791
vt 0.322349 0.744145
vt 0.322349 0.640603
vt 0.053395 0.733791
vt 0.322349 0.733791
vt 0.766304 0.615828
vt 0.662686 0.615828
vt 0.756381 0.626136
vt 0.713855 0.002914
vt 0.703931 0.013230
vt 0.715135 0.628695
vt 0.703932 0.618387
vt 0.755741 0.615824
vt 0.714494 0.013226
vt 0.755741 0.010667
vt 0.714495 0.618383
vt 0.662685 0.010671
vt 0.755101 0.000355
vt 0.766304 0.010671
vt 0.086528 0.682020
vt 0.000355 0.744145
vt 0.924956 0.715695
vt 0.915625 0.598281
vt 0.952141 0.364475
vt 0.906769 0.481378
vt 0.915625 0.481378
vt 0.922915 0.364475
vt 0.871344 0.598281
vt 0.954181 0.598281
vt 0.952141 0.481378
vt 0.871344 0.481378
vt 0.954181 0.481378
vt 0.952141 0.598281
vt 0.906769 0.598281
vt 0.954181 0.715185
vt 0.745519 0.658397
vt 0.662685 0.658397
vt 0.733094 0.948314
vt 0.733094 0.658397
vt 0.691677 0.948313
vt 0.745519 0.977307
vt 0.733094 0.629405
vt 0.704102 0.658397
vt 0.733094 0.977307
vt 0.704102 0.948313
vt 0.745519 0.948314
vt 0.662685 0.948313
vt 0.745519 0.629405
vt 0.691677 0.658397
vt 0.448369 0.633611
vt 0.382101 0.633611
vt 0.431802 0.774428
vt 0.431802 0.633611
vt 0.415235 0.633611
vt 0.398668 0.774428
vt 0.415235 0.774429
vt 0.382101 0.774428
vt 0.448369 0.774428
vt 0.595707 0.970653
vt 0.661974 0.970653
vt 0.612274 0.844332
vt 0.612274 0.970653
vt 0.628841 0.970653
vt 0.645407 0.844332
vt 0.628841 0.844332
vt 0.661974 0.844332
vt 0.595707 0.844332
vt 0.937611 0.716406
vt 0.871344 0.716406
vt 0.921044 0.857223
vt 0.921044 0.716406
vt 0.904477 0.716406
vt 0.887911 0.857223
vt 0.904477 0.857223
vt 0.871344 0.857223
vt 0.937611 0.857223
vt 0.528729 0.970653
vt 0.594996 0.970653
vt 0.545296 0.844332
vt 0.545296 0.970653
vt 0.561863 0.970653
vt 0.578430 0.844332
vt 0.561863 0.844332
vt 0.594996 0.844332
vt 0.528729 0.844332
vt 0.515346 0.718010
vt 0.449079 0.718010
vt 0.498780 0.858827
vt 0.498780 0.718010
vt 0.482213 0.718010
vt 0.465646 0.858827
vt 0.482213 0.858827
vt 0.449079 0.858827
vt 0.515346 0.858827
vt 0.621617 0.015443
vt 0.621618 0.717300
vt 0.608294 0.707156
vt 0.620368 0.005353
vt 0.609543 0.015387
vt 0.555883 0.701957
vt 0.660725 0.702213
vt 0.620369 0.707211
vt 0.569205 0.010244
vt 0.660725 0.000355
vt 0.557131 0.010189
vt 0.661974 0.010445
vt 0.661974 0.712302
vt 0.567957 0.702012
vt 0.933469 0.041772
vt 0.871344 0.000355
vt 0.923115 0.277593
vt 0.881698 0.363764
vt 0.923115 0.041772
vt 0.881698 0.000355
vt 0.881698 0.041772
vt 0.871344 0.310727
vt 0.974886 0.310727
vt 0.871344 0.041772
vt 0.974886 0.041772
vt 0.881698 0.310727
vt 0.767015 0.615829
vt 0.870633 0.615829
vt 0.776938 0.626137
vt 0.819463 0.002914
vt 0.829387 0.013230
vt 0.870633 0.010671
vt 0.778217 0.000355
vt 0.767015 0.010671
vt 0.818824 0.013226
vt 0.777578 0.615825
vt 0.777578 0.010667
vt 0.818184 0.628696
vt 0.829387 0.618388
vt 0.818824 0.618384
vt 0.933469 0.277593
vt 0.871344 0.363764
vt 0.351336 0.746896
vt 0.234416 0.792267
vt 0.117513 0.783411
vt 0.000355 0.775101
vt 0.234416 0.783411
vt 0.351336 0.776126
vt 0.234416 0.746896
vt 0.117531 0.744856
vt 0.117513 0.827693
vt 0.234451 0.744856
vt 0.234416 0.827692
vt 0.117513 0.746896
vt 0.117513 0.792268
vt 0.000610 0.745875
vt 0.837424 0.658398
vt 0.849849 0.948315
vt 0.767015 0.948314
vt 0.837423 0.948314
vt 0.837423 0.977308
vt 0.808432 0.948314
vt 0.796006 0.658398
vt 0.849849 0.629406
vt 0.837424 0.629406
vt 0.808432 0.658398
vt 0.849849 0.658398
vt 0.767015 0.658398
vt 0.849849 0.977308
vt 0.796007 0.948314
vt 0.448369 0.915246
vt 0.382101 0.915246
vt 0.431802 0.915246
vt 0.415235 0.915246
vt 0.595707 0.718010
vt 0.661974 0.718010
vt 0.612274 0.718010
vt 0.628841 0.718010
vt 0.937611 0.998040
vt 0.871344 0.998040
vt 0.921044 0.998040
vt 0.904477 0.998040
vt 0.528729 0.718010
vt 0.594996 0.718010
vt 0.545296 0.718010
vt 0.561863 0.718010
vt 0.515346 0.999645
vt 0.449079 0.999645
vt 0.498780 0.999645
vt 0.482213 0.999645
vt 0.448369 0.550163
vt 0.224717 0.632901
vt 0.224717 0.550163
vt 0.448369 0.000356
vt 0.224718 0.054726
vt 0.224718 0.000355
vt 0.448369 0.099955
vt 0.224717 0.099955
vt 0.224717 0.142752
vt 0.448368 0.186131
vt 0.224717 0.186131
vt 0.224717 0.230640
vt 0.448368 0.230640
vt 0.224717 0.276535
vt 0.448368 0.276535
vt 0.224717 0.324076
vt 0.448368 0.324076
vt 0.224717 0.373666
vt 0.448368 0.373666
vt 0.224717 0.426045
vt 0.448368 0.482889
vt 0.224717 0.482889
vt 0.224007 0.639892
vt 0.000356 0.556853
vt 0.224007 0.556852
vt 0.224007 0.000356
vt 0.000355 0.055417
vt 0.000356 0.000355
vt 0.224007 0.055417
vt 0.000355 0.102009
vt 0.224006 0.145825
vt 0.224006 0.102009
vt 0.224006 0.189786
vt 0.000355 0.145825
vt 0.224006 0.234721
vt 0.000355 0.189786
vt 0.224006 0.280972
vt 0.000355 0.234721
vt 0.224006 0.328845
vt 0.000355 0.280972
vt 0.224006 0.378774
vt 0.000355 0.328845
vt 0.224006 0.431544
vt 0.000355 0.378774
vt 0.224006 0.488940
vt 0.000355 0.431544
vt 0.000355 0.488940
vt 0.053395 0.640603
vt 0.053395 0.744145
vt 0.398668 0.633611
vt 0.645407 0.970653
vt 0.887911 0.716406
vt 0.578430 0.970653
vt 0.465646 0.718010
vt 0.398668 0.915246
vt 0.645407 0.718010
vt 0.887911 0.998040
vt 0.578430 0.718010
vt 0.465646 0.999645
vt 0.448369 0.632900
vt 0.448369 0.054726
vt 0.448368 0.142752
vt 0.448368 0.426045
vt 0.000356 0.639892
s 1
f 1/2/1 2/3/2 3/5/3
f 2/3/2 4/7/4 5/9/5
f 4/6/4 6/10/6 5/8/5
f 2/3/2 6/11/6 3/4/3
f 1/1/1 4/7/4 7/12/7
f 8/14/8 3/5/3 6/10/6
f 9/16/9 10/17/10 11/19/11
f 12/21/12 13/23/13 14/24/14
f 14/24/14 9/16/9 11/19/11
f 15/26/15 16/29/16 17/31/17
f 18/32/18 19/33/19 20/34/20
f 18/32/18 17/30/17 21/35/21
f 14/24/14 10/18/10 12/21/12
f 22/37/22 19/33/19 16/28/16
f 23/39/23 12/22/12 10/17/10
f 21/35/21 16/29/16 19/33/19
f 18/32/18 22/38/22 15/25/15
f 13/23/13 23/40/23 9/15/9
f 24/42/24 25/44/10 26/45/25
f 27/48/26 28/49/27 29/51/28
f 30/52/25 26/45/25 28/49/27
f 29/51/28 26/46/25 25/43/10
f 25/44/10 27/47/26 29/50/28
f 30/52/25 31/54/29 24/41/24
f 32/55/29 33/57/30 34/58/10
f 35/59/31 36/62/32 37/64/33
f 38/65/34 37/63/33 33/57/30
f 37/64/33 34/58/10 33/57/30
f 39/67/35 34/58/10 36/61/32
f 38/66/34 39/68/35 35/59/31
f 40/69/36 41/71/37 42/72/37
f 41/71/37 43/73/38 42/72/37
f 44/74/39 43/73/38 45/75/38
f 40/70/36 44/74/39 46/76/36
f 47/78/36 48/80/37 49/81/37
f 48/80/37 50/82/38 49/81/37
f 51/83/39 50/82/38 52/84/38
f 47/79/36 51/83/39 53/85/36
f 54/87/36 55/89/37 56/90/37
f 55/89/37 57/91/38 56/90/37
f 58/92/39 57/91/38 59/93/38
f 54/88/36 58/92/39 60/94/36
f 61/96/36 62/98/37 63/99/37
f 62/98/37 64/100/38 63/99/37
f 65/101/39 64/100/38 66/102/38
f 61/97/36 65/101/39 67/103/36
f 68/105/36 69/107/37 70/108/37
f 69/107/37 71/109/38 70/108/37
f 72/110/39 71/109/38 73/111/38
f 68/106/36 72/110/39 74/112/36
f 75/114/40 76/116/7 77/118/2
f 75/114/40 78/120/8 79/121/1
f 80/122/5 78/119/8 81/124/6
f 80/123/5 75/114/40 77/117/2
f 78/120/8 76/115/7 79/121/1
f 77/118/2 82/127/41 80/122/5
f 83/128/11 84/130/23 85/132/10
f 86/134/30 87/135/13 88/137/33
f 86/134/30 84/130/23 89/139/42
f 90/141/18 91/144/19 92/145/20
f 93/148/16 94/149/15 95/150/22
f 96/151/21 94/149/15 97/153/17
f 83/129/11 86/134/30 88/137/33
f 93/148/16 92/146/20 91/143/19
f 88/138/33 98/154/9 83/128/11
f 91/144/19 97/153/17 93/148/16
f 92/147/20 94/149/15 90/140/18
f 89/139/42 98/155/9 87/135/13
f 99/157/32 100/158/43 101/160/44
f 102/162/45 103/163/46 104/165/47
f 101/160/44 105/167/48 102/162/45
f 104/165/47 101/161/44 102/162/45
f 99/157/32 103/164/46 106/168/35
f 105/167/48 106/169/35 103/163/46
f 107/170/33 108/171/35 109/173/11
f 110/175/10 111/176/49 112/179/30
f 112/178/30 113/180/31 107/170/33
f 109/173/11 112/179/30 107/170/33
f 109/173/11 114/182/29 110/174/10
f 114/183/29 113/181/31 111/176/49
f 41/71/37 115/184/36 116/186/37
f 117/187/38 41/71/37 116/186/37
f 117/187/38 44/74/39 45/75/38
f 44/74/39 115/185/36 46/76/36
f 48/80/37 118/188/36 119/190/37
f 120/191/38 48/80/37 119/190/37
f 120/191/38 51/83/39 52/84/38
f 51/83/39 118/189/36 53/85/36
f 55/89/37 121/192/36 122/194/37
f 123/195/38 55/89/37 122/194/37
f 123/195/38 58/92/39 59/93/38
f 58/92/39 121/193/36 60/94/36
f 62/98/37 124/196/36 125/198/37
f 126/199/38 62/98/37 125/198/37
f 126/199/38 65/101/39 66/102/38
f 65/101/39 124/197/36 67/103/36
f 69/107/37 127/200/36 128/202/37
f 129/203/38 69/107/37 128/202/37
f 129/203/38 72/110/39 73/111/38
f 72/110/39 127/201/36 74/112/36
f 130/204/50 131/205/51 132/206/50
f 133/207/52 134/208/53 135/209/52
f 134/208/53 136/210/54 137/211/54
f 136/210/54 138/212/55 137/211/54
f 138/212/55 139/213/56 140/214/56
f 139/213/56 141/215/57 140/214/56
f 142/216/57 143/217/58 141/215/57
f 144/218/58 145/219/59 143/217/58
f 146/220/59 147/221/60 145/219/59
f 148/222/60 149/223/61 147/221/60
f 149/223/61 150/224/62 151/225/62
f 150/224/62 132/206/50 151/225/62
f 152/226/63 153/227/64 154/228/64
f 155/229/65 156/230/66 157/231/65
f 158/232/67 159/233/68 156/230/66
f 160/234/69 159/233/68 161/235/68
f 162/236/70 163/237/69 160/234/69
f 164/238/71 165/239/70 162/236/70
f 166/240/72 167/241/71 164/238/71
f 168/242/73 169/243/72 166/240/72
f 170/244/74 171/245/73 168/242/73
f 172/246/75 173/247/74 170/244/74
f 174/248/76 175/249/75 172/246/75
f 154/228/64 176/250/76 174/248/76
f 1/2/1 7/12/7 2/3/2
f 2/3/2 7/12/7 4/7/4
f 4/6/4 8/14/8 6/10/6
f 2/3/2 5/9/5 6/11/6
f 1/1/1 8/13/8 4/7/4
f 8/14/8 1/2/1 3/5/3
f 9/16/9 23/39/23 10/17/10
f 12/21/12 177/252/42 13/23/13
f 14/24/14 13/23/13 9/16/9
f 15/26/15 22/36/22 16/29/16
f 18/32/18 21/35/21 19/33/19
f 18/32/18 15/27/15 17/30/17
f 14/24/14 11/20/11 10/18/10
f 22/37/22 20/34/20 19/33/19
f 23/39/23 177/251/42 12/22/12
f 21/35/21 17/31/17 16/29/16
f 18/32/18 20/34/20 22/38/22
f 13/23/13 177/252/42 23/40/23
f 24/42/24 31/53/29 25/44/10
f 27/48/26 30/52/25 28/49/27
f 30/52/25 24/42/24 26/45/25
f 29/51/28 28/49/27 26/46/25
f 25/44/10 31/53/29 27/47/26
f 30/52/25 27/48/26 31/54/29
f 32/55/29 38/65/34 33/57/30
f 35/59/31 39/68/35 36/62/32
f 38/65/34 35/60/31 37/63/33
f 37/64/33 36/62/32 34/58/10
f 39/67/35 32/55/29 34/58/10
f 38/66/34 32/56/29 39/68/35
f 40/69/36 46/77/36 41/71/37
f 41/71/37 45/75/38 43/73/38
f 44/74/39 178/253/39 43/73/38
f 40/70/36 178/253/39 44/74/39
f 47/78/36 53/86/36 48/80/37
f 48/80/37 52/84/38 50/82/38
f 51/83/39 179/254/39 50/82/38
f 47/79/36 179/254/39 51/83/39
f 54/87/36 60/95/36 55/89/37
f 55/89/37 59/93/38 57/91/38
f 58/92/39 180/255/39 57/91/38
f 54/88/36 180/255/39 58/92/39
f 61/96/36 67/104/36 62/98/37
f 62/98/37 66/102/38 64/100/38
f 65/101/39 181/256/39 64/100/38
f 61/97/36 181/256/39 65/101/39
f 68/105/36 74/113/36 69/107/37
f 69/107/37 73/111/38 71/109/38
f 72/110/39 182/257/39 71/109/38
f 68/106/36 182/257/39 72/110/39
f 75/114/40 79/121/1 76/116/7
f 75/114/40 81/125/6 78/120/8
f 80/122/5 82/127/41 78/119/8
f 80/123/5 81/125/6 75/114/40
f 78/120/8 82/126/41 76/115/7
f 77/118/2 76/116/7 82/127/41
f 83/128/11 98/154/9 84/130/23
f 86/134/30 89/139/42 87/135/13
f 86/134/30 85/132/10 84/130/23
f 90/141/18 96/152/21 91/144/19
f 93/148/16 97/153/17 94/149/15
f 96/151/21 90/142/18 94/149/15
f 83/129/11 85/133/10 86/134/30
f 93/148/16 95/150/22 92/146/20
f 88/138/33 87/136/13 98/154/9
f 91/144/19 96/152/21 97/153/17
f 92/147/20 95/150/22 94/149/15
f 89/139/42 84/131/23 98/155/9
f 99/157/32 106/168/35 100/158/43
f 102/162/45 105/167/48 103/163/46
f 101/160/44 100/158/43 105/167/48
f 104/165/47 99/156/32 101/161/44
f 99/157/32 104/166/47 103/164/46
f 105/167/48 100/159/43 106/169/35
f 107/170/33 113/180/31 108/171/35
f 110/175/10 114/183/29 111/176/49
f 112/178/30 111/177/49 113/180/31
f 109/173/11 110/175/10 112/179/30
f 109/173/11 108/171/35 114/182/29
f 114/183/29 108/172/35 113/181/31
f 41/71/37 46/77/36 115/184/36
f 117/187/38 45/75/38 41/71/37
f 117/187/38 183/258/39 44/74/39
f 44/74/39 183/258/39 115/185/36
f 48/80/37 53/86/36 118/188/36
f 120/191/38 52/84/38 48/80/37
f 120/191/38 184/259/39 51/83/39
f 51/83/39 184/259/39 118/189/36
f 55/89/37 60/95/36 121/192/36
f 123/195/38 59/93/38 55/89/37
f 123/195/38 185/260/39 58/92/39
f 58/92/39 185/260/39 121/193/36
f 62/98/37 67/104/36 124/196/36
f 126/199/38 66/102/38 62/98/37
f 126/199/38 186/261/39 65/101/39
f 65/101/39 186/261/39 124/197/36
f 69/107/37 74/113/36 127/200/36
f 129/203/38 73/111/38 69/107/37
f 129/203/38 187/262/39 72/110/39
f 72/110/39 187/262/39 127/201/36
f 130/204/50 188/263/51 131/205/51
f 133/207/52 189/264/53 134/208/53
f 134/208/53 189/264/53 136/210/54
f 136/210/54 190/265/55 138/212/55
f 138/212/55 190/265/55 139/213/56
f 139/213/56 142/216/57 141/215/57
f 142/216/57 144/218/58 143/217/58
f 144/218/58 146/220/59 145/219/59
f 146/220/59 148/222/60 147/221/60
f 148/222/60 191/266/61 149/223/61
f 149/223/61 191/266/61 150/224/62
f 150/224/62 130/204/50 132/206/50
f 152/226/63 192/267/63 153/227/64
f 155/229/65 158/232/67 156/230/66
f 158/232/67 161/235/68 159/233/68
f 160/234/69 163/237/69 159/233/68
f 162/236/70 165/239/70 163/237/69
f 164/238/71 167/241/71 165/239/70
f 166/240/72 169/243/72 167/241/71
f 168/242/73 171/245/73 169/243/72
f 170/244/74 173/247/74 171/245/73
f 172/246/75 175/249/75 173/247/74
f 174/248/76 176/250/76 175/249/75
f 154/228/64 153/227/64 176/250/76
