# Blender 3.4.1
# www.blender.org
mtllib chair_01.mtl
o chair_01_chair_01_chair_01.001
v 1.187065 2.036314 1.085745
v -1.180732 1.894246 1.092628
v 1.187065 1.894246 1.085745
v 1.140260 -0.000000 1.275306
v 0.950836 2.651944 1.275857
v 0.950836 -0.000000 1.275857
v 1.139709 2.841368 1.085883
v 1.139709 -0.000000 1.085883
v -1.187065 2.036314 -1.085745
v -1.187065 1.894246 -1.085745
v 0.950285 -0.000000 1.086433
v 1.180732 1.894246 -1.092628
v 0.950286 2.651944 1.086433
v -1.085469 2.651944 1.281777
v -1.132825 0.000000 1.281914
v -0.943402 0.000000 1.281364
v -1.086020 2.651944 1.092353
v -0.943953 0.000000 1.091940
v -1.133376 0.000000 1.092491
v -1.281996 2.746656 1.282348
v -1.100227 2.841369 1.092394
v -1.194388 3.788492 1.282094
v -1.099676 2.841369 1.281818
v -1.282547 2.746656 1.092924
v -1.383811 3.788492 1.282644
v -1.194938 3.788492 1.092670
v -1.384362 3.788492 1.093220
v 1.140260 2.841368 1.275306
v -1.228982 3.599067 0.784952
v -1.086502 1.988958 0.926607
v -1.086915 1.988958 0.784539
v -1.187248 3.564341 -1.095216
v -1.351342 3.564341 1.102596
v -1.357730 3.564341 -1.094720
v -1.181627 1.988958 0.784815
v -1.206190 3.734823 -1.095161
v -1.370284 3.734823 1.102651
v -1.199803 3.734823 1.102155
v -1.180860 3.564341 1.102100
v -1.323281 3.599067 0.927296
v -1.181214 1.988958 0.926883
v -1.228569 3.599067 0.927020
v -1.229189 3.599067 0.713919
v -1.181833 1.988958 0.713781
v -1.087121 1.988958 0.713506
v -1.323901 3.599067 0.714194
v -1.182246 1.988958 0.571713
v -1.229602 3.599067 0.571851
v -1.087534 1.988958 0.571438
v -1.230221 3.599067 0.358749
v -1.087741 1.988958 0.500404
v -1.088154 1.988958 0.358336
v -1.182866 1.988958 0.358611
v -1.324520 3.599067 0.501092
v -1.182453 1.988958 0.500679
v -1.229808 3.599067 0.500817
v -1.230428 3.599067 0.287715
v -1.183072 1.988958 0.287577
v -1.088360 1.988958 0.287302
v -1.325140 3.599067 0.287990
v -1.183485 1.988958 0.145510
v -1.230841 3.599067 0.145647
v -1.088773 1.988958 0.145234
v -1.231047 3.599067 0.074613
v -1.183692 1.988958 0.074476
v -1.088980 1.988958 0.074200
v 1.180732 2.036314 -1.092628
v 1.132825 -0.000000 -1.281914
v 0.943402 2.651944 -1.281364
v 1.132826 2.841368 -1.281914
v 1.133377 2.841368 -1.092491
v 1.133376 -0.000000 -1.092491
v 0.943953 -0.000000 -1.091940
v 0.943402 -0.000000 -1.281364
v 0.943953 2.651944 -1.091940
v -1.140260 0.000000 -1.275306
v -1.092903 2.651944 -1.275444
v -0.950836 0.000000 -1.275857
v -1.092353 2.651944 -1.086020
v -0.950285 0.000000 -1.086433
v -1.139709 0.000000 -1.085883
v -1.289430 2.746656 -1.274873
v -1.288880 2.746656 -1.085449
v -1.201822 3.788492 -1.275127
v -1.106559 2.841369 -1.085979
v -1.107110 2.841369 -1.275403
v -1.201271 3.788492 -1.085704
v -1.391246 3.788492 -1.274577
v -1.390695 3.788492 -1.085153
v -1.091871 1.988958 -0.920274
v -1.233525 3.599067 -0.777794
v -1.091458 1.988958 -0.778207
v -1.186170 1.988958 -0.777931
v -1.328237 3.599067 -0.777518
v -1.328650 3.599067 -0.919586
v -1.186583 1.988958 -0.919999
v -1.233938 3.599067 -0.919861
v -1.185963 1.988958 -0.706897
v -1.233319 3.599067 -0.706760
v -1.091251 1.988958 -0.707173
v -1.185550 1.988958 -0.564830
v -1.328031 3.599067 -0.706484
v -1.232906 3.599067 -0.564692
v -1.327618 3.599067 -0.564417
v -1.090838 1.988958 -0.565105
v -1.090632 1.988958 -0.494071
v -1.232286 3.599067 -0.351590
v -1.090219 1.988958 -0.352003
v -1.184931 1.988958 -0.351728
v -1.326998 3.599067 -0.351315
v -1.327411 3.599067 -0.493383
v -1.185344 1.988958 -0.493796
v -1.232699 3.599067 -0.493658
v -1.184724 1.988958 -0.280694
v -1.232080 3.599067 -0.280556
v -1.090012 1.988958 -0.280969
v -1.184311 1.988958 -0.138626
v -1.326792 3.599067 -0.280281
v -1.231667 3.599067 -0.138488
v -1.326379 3.599067 -0.138213
v -1.089599 1.988958 -0.138901
v -1.184105 1.988958 -0.067592
v -1.231460 3.599067 -0.067455
v -1.089393 1.988958 -0.067868
v -1.325759 3.599067 0.074889
v -1.180732 2.036314 1.092628
v -1.376672 3.734823 -1.094665
v -1.323694 3.599067 0.785228
v -1.324314 3.599067 0.572126
v -1.324933 3.599067 0.359024
v -1.325553 3.599067 0.145923
v -1.326172 3.599067 -0.067179
vn 0.5790 0.5774 0.5757
vn -0.5757 -0.5774 0.5790
vn 0.5790 -0.5774 0.5757
vn -0.2989 -0.3015 0.9054
vn 0.5757 0.5773 -0.5790
vn 0.5757 -0.5774 -0.5790
vn -0.5790 0.5774 -0.5757
vn -0.5790 -0.5774 -0.5757
vn -0.3041 -0.3015 -0.9037
vn 0.3024 -0.2841 0.9099
vn -0.5584 -0.5913 0.5819
vn 0.5957 -0.5630 0.5729
vn 0.2971 -0.2841 -0.9116
vn 0.5923 -0.5630 -0.5763
vn -0.5617 -0.5913 -0.5786
vn -0.6981 -0.0532 0.7140
vn 0.2999 0.3342 -0.8935
vn 0.5470 0.6025 0.5812
vn 0.3051 0.3342 0.8918
vn -0.7022 -0.0532 -0.7100
vn -0.6057 0.5509 0.5742
vn 0.5436 0.6025 -0.5844
vn -0.6090 0.5509 -0.5706
vn 0.6828 0.0604 -0.7281
vn 0.7264 0.0639 0.6843
vn 0.7224 0.0639 -0.6885
vn 0.7451 -0.6669 -0.0022
vn -0.6669 -0.7451 0.0019
vn -0.6870 -0.0604 -0.7241
vn 0.6669 0.7451 -0.0019
vn -0.7451 0.6669 0.0022
vn -0.7224 -0.0639 0.6885
vn -0.6828 -0.0604 0.7281
vn 0.6870 0.0604 0.7241
vn 0.5757 0.5774 -0.5790
vn -0.7264 -0.0639 -0.6843
vn -0.5757 0.5774 0.5790
vt 0.366373 0.411033
vt 0.381013 0.022330
vt 0.359053 0.000370
vt 0.359053 0.388333
vt 0.359053 0.022330
vt 0.820957 0.736612
vt 0.411033 0.707332
vt 0.029650 0.807056
vt 0.850237 0.736612
vt 0.820957 0.707332
vt 0.000370 0.865617
vt 0.381753 0.765893
vt 0.381753 0.648772
vt 0.000370 0.748496
vt 0.820957 0.765893
vt 0.820957 0.648772
vt 0.022330 0.410294
vt 0.000370 0.388333
vt 0.000370 0.747756
vt 0.022330 0.388333
vt 0.850237 0.765893
vt 0.820957 0.678052
vt 0.022330 0.022330
vt 0.411033 0.678052
vt 0.029650 0.836337
vt 0.560539 0.439640
vt 0.344413 0.807056
vt 0.619727 0.001888
vt 0.530198 0.031401
vt 0.559518 0.029757
vt 0.590402 0.000370
vt 0.589695 0.439538
vt 0.344413 0.836336
vt 0.588883 0.029695
vt 0.501110 0.031452
vt 0.618209 0.031214
vt 0.531106 0.456533
vt 0.589763 0.468746
vt 0.346609 0.748496
vt 0.346609 0.865617
vt 0.587585 0.645237
vt 0.560906 0.615984
vt 0.560596 0.468841
vt 0.346609 0.777776
vt 0.501776 0.456620
vt 0.619181 0.456273
vt 0.616933 0.648032
vt 0.531576 0.618952
vt 0.590380 0.615890
vt 0.502358 0.619042
vt 0.619727 0.618685
vt 0.381753 0.736612
vt 0.000370 0.777776
vt 0.918627 0.001657
vt 0.991715 0.001656
vt 0.940587 0.251505
vt 0.918627 0.251505
vt 0.991715 0.251505
vt 0.817546 0.000370
vt 0.791194 0.340020
vt 0.791194 0.000370
vt 0.977131 0.250218
vt 0.738327 0.000370
vt 0.844061 0.000370
vt 0.764680 0.340020
vt 0.738327 0.340020
vt 0.844061 0.340020
vt 0.817546 0.340020
vt 0.955171 0.000370
vt 0.955171 0.250218
vt 0.940587 0.001656
vt 0.739614 0.391887
vt 0.988176 0.377304
vt 0.989463 0.391887
vt 0.738327 0.377304
vt 0.988176 0.355344
vt 0.739614 0.340760
vt 0.739614 0.413847
vt 0.989463 0.340760
vt 0.989463 0.413847
vt 0.383040 0.957580
vt 0.383040 0.884493
vt 0.632888 0.935620
vt 0.632888 0.957580
vt 0.632888 0.884493
vt 0.631602 0.899077
vt 0.381753 0.921037
vt 0.631602 0.921037
vt 0.383040 0.935620
vt 0.872937 0.650058
vt 0.887520 0.898620
vt 0.872936 0.899907
vt 0.887520 0.648772
vt 0.909480 0.898620
vt 0.924064 0.650058
vt 0.850976 0.650058
vt 0.924064 0.899907
vt 0.850976 0.899907
vt 0.935784 0.650059
vt 0.950367 0.898620
vt 0.935784 0.899907
vt 0.022330 0.000370
vt 0.000370 0.022330
vt 0.366373 0.747756
vt 0.649747 0.029650
vt 0.679027 0.439574
vt 0.411033 0.825193
vt 0.381753 0.854473
vt 0.649747 0.468854
vt 0.381753 0.766633
vt 0.620467 0.468854
vt 0.737588 0.468854
vt 0.381753 0.883753
vt 0.620467 0.029650
vt 0.737588 0.029650
vt 0.620467 0.000370
vt 0.708308 0.029650
vt 0.649747 0.000370
vt 0.679027 0.029650
vt 0.708308 0.439574
vt 0.411033 0.795913
vt 0.500371 0.646514
vt 0.410841 0.617001
vt 0.441182 0.208760
vt 0.725796 0.825193
vt 0.440162 0.618645
vt 0.471045 0.648032
vt 0.470339 0.208863
vt 0.725796 0.795913
vt 0.469527 0.618707
vt 0.381753 0.616950
vt 0.498852 0.617188
vt 0.411750 0.191867
vt 0.499824 0.192128
vt 0.382421 0.191781
vt 0.468229 0.003164
vt 0.441550 0.032418
vt 0.470407 0.179654
vt 0.727992 0.883753
vt 0.727992 0.766632
vt 0.441240 0.179559
vt 0.727992 0.854473
vt 0.471024 0.032512
vt 0.497576 0.000370
vt 0.412220 0.029449
vt 0.383002 0.029359
vt 0.500371 0.029717
vt 0.871602 0.491554
vt 0.621754 0.469593
vt 0.621754 0.542681
vt 0.871602 0.469593
vt 0.871602 0.542681
vt 0.870316 0.528097
vt 0.620467 0.528097
vt 0.620467 0.506137
vt 0.870316 0.506137
vt 0.621754 0.491553
vt 0.250219 0.902900
vt 0.001657 0.888316
vt 0.251505 0.888317
vt 0.250219 0.924860
vt 0.000370 0.902900
vt 0.001657 0.939444
vt 0.001657 0.866356
vt 0.000370 0.924860
vt 0.251505 0.866356
vt 0.251505 0.939444
vt 0.871602 0.565381
vt 0.621754 0.543420
vt 0.621754 0.616508
vt 0.871602 0.543420
vt 0.871602 0.616508
vt 0.870316 0.601924
vt 0.620467 0.601924
vt 0.620467 0.579964
vt 0.870316 0.579964
vt 0.621754 0.565380
vt 0.881344 0.250219
vt 0.895928 0.001657
vt 0.895928 0.251505
vt 0.859384 0.250219
vt 0.881344 0.000370
vt 0.844800 0.001657
vt 0.917888 0.001657
vt 0.859384 0.000370
vt 0.917888 0.251505
vt 0.844800 0.251505
vt 0.973067 0.898620
vt 0.987651 0.650058
vt 0.987651 0.899907
vt 0.950367 0.648772
vt 0.381013 0.388333
vt 0.359053 0.410294
vt 0.000370 0.411033
vt 0.764680 0.000370
vt 0.977131 0.000370
vt 0.738328 0.355344
vt 0.381753 0.899077
vt 0.909480 0.648772
vt 0.973067 0.648772
s 1
f 1/2/1 2/4/2 3/5/3
f 4/6/3 5/7/4 6/10/2
f 7/12/5 4/6/3 8/15/6
f 2/4/2 9/17/7 10/20/8
f 11/21/8 4/6/3 6/9/2
f 12/23/6 2/4/2 10/20/8
f 5/7/4 11/22/8 6/10/2
f 12/23/6 1/3/1 3/5/3
f 13/24/9 8/16/6 11/22/8
f 14/26/10 15/29/11 16/30/12
f 17/32/13 16/30/12 18/34/14
f 19/36/15 16/31/12 15/28/11
f 20/37/16 19/35/15 15/29/11
f 19/36/15 17/32/13 18/34/14
f 21/38/17 22/42/18 23/43/19
f 20/37/16 14/26/10 23/43/19
f 17/32/13 24/46/20 21/38/17
f 25/47/21 26/49/22 27/51/23
f 20/37/16 27/50/23 24/45/20
f 21/38/17 27/51/23 26/49/22
f 23/43/19 25/48/21 20/37/16
f 7/14/5 23/44/19 28/53/1
f 13/25/9 21/40/17 7/11/5
f 5/8/4 17/33/13 13/25/9
f 5/8/4 23/44/19 14/27/10
f 29/54/24 30/56/25 31/57/26
f 32/59/27 33/60/28 34/61/28
f 35/62/29 29/55/24 31/58/26
f 36/63/30 37/65/31 38/66/30
f 32/59/27 38/67/30 39/68/27
f 40/69/32 35/62/29 41/70/33
f 42/71/34 41/70/33 30/56/25
f 43/72/34 44/73/33 45/74/25
f 46/75/32 47/76/29 44/73/33
f 47/76/29 48/77/24 49/79/26
f 48/78/24 45/74/25 49/80/26
f 50/81/24 51/83/25 52/84/26
f 53/86/29 50/82/24 52/85/26
f 54/87/32 53/86/29 55/88/33
f 56/89/34 55/88/33 51/83/25
f 57/90/34 58/91/33 59/92/25
f 60/93/32 61/94/29 58/91/33
f 61/94/29 62/95/24 63/97/26
f 62/96/24 59/92/25 63/98/26
f 64/99/34 65/100/33 66/101/25
f 10/20/8 67/103/35 12/23/6
f 68/105/6 69/106/9 70/109/35
f 68/105/6 71/111/1 72/114/3
f 68/105/6 73/116/2 74/118/8
f 73/117/2 69/106/9 74/119/8
f 72/115/3 75/120/4 73/117/2
f 76/123/15 77/124/13 78/126/14
f 78/126/14 79/128/10 80/130/12
f 78/127/14 81/132/11 76/122/15
f 81/131/11 82/133/20 76/123/15
f 81/132/11 79/128/10 83/134/16
f 84/137/22 85/138/19 86/141/17
f 82/133/20 86/141/17 77/124/13
f 79/128/10 85/138/19 83/134/16
f 87/143/18 88/144/23 89/147/21
f 89/146/21 82/133/20 83/135/16
f 85/138/19 89/147/21 83/134/16
f 88/145/23 86/141/17 82/133/20
f 86/142/17 71/113/1 70/108/35
f 85/140/19 75/121/4 71/110/1
f 79/129/10 69/107/9 75/121/4
f 69/107/9 86/142/17 70/108/35
f 90/148/26 91/149/34 92/151/25
f 93/153/33 91/150/34 94/154/32
f 93/153/33 95/155/36 96/156/29
f 96/156/29 97/157/24 90/148/26
f 98/158/29 99/159/24 100/160/26
f 101/161/33 102/162/36 98/158/29
f 101/161/33 103/163/34 104/165/32
f 100/160/26 103/164/34 105/166/25
f 106/168/26 107/169/34 108/171/25
f 109/173/33 107/170/34 110/174/32
f 109/173/33 111/175/36 112/176/29
f 112/176/29 113/177/24 106/168/26
f 114/178/29 115/179/24 116/180/26
f 117/181/33 118/182/36 114/178/29
f 117/181/33 119/183/34 120/185/32
f 116/180/26 119/184/34 121/186/25
f 122/188/29 123/189/24 124/190/26
f 124/190/26 64/99/34 66/101/25
f 125/191/32 122/188/29 65/100/33
f 67/104/35 126/194/37 1/1/1
f 33/60/28 127/195/31 34/61/28
f 1/2/1 126/192/37 2/4/2
f 4/6/3 28/52/1 5/7/4
f 7/12/5 28/52/1 4/6/3
f 2/4/2 126/193/37 9/17/7
f 11/21/8 8/15/6 4/6/3
f 12/23/6 3/5/3 2/4/2
f 5/7/4 13/24/9 11/22/8
f 12/23/6 67/102/35 1/3/1
f 13/24/9 7/13/5 8/16/6
f 14/26/10 20/37/16 15/29/11
f 17/32/13 14/26/10 16/30/12
f 19/36/15 18/34/14 16/31/12
f 20/37/16 24/45/20 19/35/15
f 19/36/15 24/46/20 17/32/13
f 21/38/17 26/49/22 22/42/18
f 25/47/21 22/41/18 26/49/22
f 20/37/16 25/48/21 27/50/23
f 21/38/17 24/46/20 27/51/23
f 23/43/19 22/42/18 25/48/21
f 7/14/5 21/39/17 23/44/19
f 13/25/9 17/33/13 21/40/17
f 5/8/4 14/27/10 17/33/13
f 5/8/4 28/53/1 23/44/19
f 29/54/24 42/71/34 30/56/25
f 32/59/27 39/68/27 33/60/28
f 35/62/29 128/196/36 29/55/24
f 36/63/30 127/195/31 37/65/31
f 32/59/27 36/64/30 38/67/30
f 40/69/32 128/196/36 35/62/29
f 42/71/34 40/69/32 41/70/33
f 43/72/34 46/75/32 44/73/33
f 46/75/32 129/197/36 47/76/29
f 47/76/29 129/197/36 48/77/24
f 48/78/24 43/72/34 45/74/25
f 50/81/24 56/89/34 51/83/25
f 53/86/29 130/198/36 50/82/24
f 54/87/32 130/198/36 53/86/29
f 56/89/34 54/87/32 55/88/33
f 57/90/34 60/93/32 58/91/33
f 60/93/32 131/199/36 61/94/29
f 61/94/29 131/199/36 62/95/24
f 62/96/24 57/90/34 59/92/25
f 64/99/34 125/191/32 65/100/33
f 10/20/8 9/18/7 67/103/35
f 68/105/6 74/119/8 69/106/9
f 68/105/6 70/109/35 71/111/1
f 68/105/6 72/114/3 73/116/2
f 73/117/2 75/120/4 69/106/9
f 72/115/3 71/112/1 75/120/4
f 76/123/15 82/133/20 77/124/13
f 78/126/14 77/124/13 79/128/10
f 78/127/14 80/130/12 81/132/11
f 81/131/11 83/135/16 82/133/20
f 81/132/11 80/130/12 79/128/10
f 84/137/22 87/143/18 85/138/19
f 87/143/18 84/136/22 88/144/23
f 89/146/21 88/145/23 82/133/20
f 85/138/19 87/143/18 89/147/21
f 88/145/23 84/137/22 86/141/17
f 86/142/17 85/139/19 71/113/1
f 85/140/19 79/129/10 75/121/4
f 79/129/10 77/125/13 69/107/9
f 69/107/9 77/125/13 86/142/17
f 90/148/26 97/157/24 91/149/34
f 93/153/33 92/152/25 91/150/34
f 93/153/33 94/154/32 95/155/36
f 96/156/29 95/155/36 97/157/24
f 98/158/29 102/162/36 99/159/24
f 101/161/33 104/165/32 102/162/36
f 101/161/33 105/167/25 103/163/34
f 100/160/26 99/159/24 103/164/34
f 106/168/26 113/177/24 107/169/34
f 109/173/33 108/172/25 107/170/34
f 109/173/33 110/174/32 111/175/36
f 112/176/29 111/175/36 113/177/24
f 114/178/29 118/182/36 115/179/24
f 117/181/33 120/185/32 118/182/36
f 117/181/33 121/187/25 119/183/34
f 116/180/26 115/179/24 119/184/34
f 122/188/29 132/200/36 123/189/24
f 124/190/26 123/189/24 64/99/34
f 125/191/32 132/200/36 122/188/29
f 67/104/35 9/19/7 126/194/37
f 33/60/28 37/65/31 127/195/31
