# Blender 3.4.1
# www.blender.org
mtllib cooler.mtl
o cooler
v -0.662272 -0.000000 0.341818
v -0.662272 0.192272 0.534090
v -0.854544 0.192272 0.341818
v -0.662272 0.056314 0.477776
v -0.773279 0.081265 0.452825
v -0.798227 0.192272 0.477776
v -0.798227 0.056314 0.341818
v -0.735857 0.960997 0.593434
v -0.735857 1.174633 0.379798
v -0.949493 0.960997 0.379798
v -0.735857 1.112062 0.530862
v -0.859200 1.084339 0.503140
v -0.886922 1.112062 0.379798
v -0.886922 0.960997 0.530862
v -0.662272 0.000000 -0.341818
v -0.854544 0.192272 -0.341818
v -0.662272 0.192273 -0.534090
v -0.798227 0.056314 -0.341818
v -0.773279 0.081265 -0.452825
v -0.798227 0.192273 -0.477776
v -0.662272 0.056314 -0.477776
v -0.735857 1.174633 -0.379797
v -0.735857 0.960997 -0.593433
v -0.949493 0.960997 -0.379797
v -0.735857 1.112062 -0.530862
v -0.859200 1.084339 -0.503139
v -0.886922 0.960997 -0.530862
v -0.886922 1.112062 -0.379797
v -0.925756 0.925391 0.069788
v -0.881249 1.020340 0.069788
v -0.925756 0.925391 -0.069788
v -0.881249 1.020340 -0.069788
v -0.881249 1.459713 0.069788
v -0.757494 1.601905 0.069788
v -0.851295 1.560258 0.069788
v -0.793100 1.649380 0.069788
v -0.925756 1.507187 0.069788
v -0.886901 1.607733 0.069788
v -0.925756 1.507187 -0.069788
v -0.793100 1.649380 -0.069788
v -0.886901 1.607733 -0.069788
v -0.757494 1.601905 -0.069788
v -0.881249 1.459713 -0.069788
v -0.851295 1.560258 -0.069788
v 0.662272 -0.000000 0.341818
v 0.662272 0.192272 0.534090
v 0.854544 0.192272 0.341818
v 0.662272 0.056314 0.477776
v 0.773279 0.081265 0.452825
v 0.798227 0.192272 0.477776
v 0.798227 0.056314 0.341818
v 0.735857 0.960997 0.593434
v 0.735857 1.174633 0.379798
v 0.949493 0.960997 0.379798
v 0.735857 1.112062 0.530862
v 0.859200 1.084339 0.503140
v 0.886922 1.112062 0.379798
v 0.886922 0.960997 0.530862
v 0.662272 0.000000 -0.341818
v 0.854544 0.192272 -0.341818
v 0.662272 0.192273 -0.534090
v 0.798227 0.056314 -0.341818
v 0.773279 0.081265 -0.452825
v 0.798227 0.192273 -0.477776
v 0.662272 0.056314 -0.477776
v 0.735857 1.174633 -0.379797
v 0.735857 0.960997 -0.593433
v 0.949493 0.960997 -0.379797
v 0.735857 1.112062 -0.530862
v 0.859200 1.084339 -0.503139
v 0.886922 0.960997 -0.530862
v 0.886922 1.112062 -0.379797
v 0.925756 0.925391 0.069788
v 0.881249 1.020340 0.069788
v 0.925756 0.925391 -0.069788
v 0.881249 1.020340 -0.069788
v 0.881249 1.459713 0.069788
v 0.757494 1.601905 0.069788
v 0.851295 1.560258 0.069788
v 0.793100 1.649380 0.069788
v 0.925756 1.507187 0.069788
v 0.886901 1.607733 0.069788
v 0.925756 1.507187 -0.069788
v 0.793100 1.649380 -0.069788
v 0.886901 1.607733 -0.069788
v 0.757494 1.601905 -0.069788
v 0.881249 1.459713 -0.069788
v 0.851295 1.560258 -0.069788
vn 0.1727 -0.2253 0.9589
vn -0.1855 0.1329 0.9736
vn -0.1727 -0.2253 0.9589
vn -0.9764 0.1156 0.1824
vn -0.9540 -0.2433 -0.1754
vn -0.9540 -0.2433 0.1754
vn -0.1794 -0.9673 0.1794
vn -0.5774 -0.5773 0.5773
vn -0.6993 -0.6993 0.1479
vn -0.1479 -0.6993 0.6993
vn -0.6879 -0.2124 0.6940
vn -0.5774 0.5774 0.5774
vn -0.7073 0.0845 0.7018
vn -0.1794 0.9673 0.1794
vn -0.1479 0.6993 0.6993
vn -0.6993 0.6993 0.1479
vn -0.1794 -0.9673 -0.1794
vn -0.5774 -0.5773 -0.5773
vn -0.1479 -0.6993 -0.6993
vn -0.6993 -0.6993 -0.1479
vn -0.1727 -0.2253 -0.9589
vn -0.6879 -0.2124 -0.6940
vn -0.1794 0.9673 -0.1794
vn -0.5774 0.5774 -0.5774
vn -0.6993 0.6993 -0.1479
vn -0.1855 0.1329 -0.9736
vn -0.1479 0.6993 -0.6993
vn -0.9764 0.1156 -0.1824
vn -0.7073 0.0845 -0.7018
vn 0.1855 0.1329 -0.9736
vn 0.1727 -0.2253 -0.9589
vn 0.1479 -0.6993 -0.6993
vn 0.1479 -0.6993 0.6993
vn 0.1479 0.6993 0.6993
vn 0.1855 0.1329 0.9736
vn 0.1794 -0.9673 0.1794
vn 0.1479 0.6993 -0.6993
vn 0.1794 0.9673 -0.1794
vn 0.1794 0.9673 0.1794
vn -0.1552 0.7321 0.6633
vn -0.1355 -0.6393 0.7569
vn 0.1552 0.7321 0.6633
vn -0.1552 0.7321 -0.6633
vn 0.1552 0.7321 -0.6633
vn 0.5024 -0.0000 0.8646
vn -0.7315 0.1364 0.6681
vn -0.9632 -0.0000 0.2688
vn -0.7315 0.1364 -0.6681
vn -0.9632 -0.0000 -0.2688
vn 0.5024 -0.0000 -0.8646
vn 0.6644 -0.0969 -0.7411
vn 0.6644 -0.0969 0.7411
vn 0.4358 -0.3831 0.8144
vn 0.1355 -0.6393 0.7569
vn 0.4358 -0.3831 -0.8144
vn -0.5622 0.5353 -0.6304
vn 0.1355 -0.6393 -0.7569
vn -0.5622 0.5353 0.6304
vn -0.1355 -0.6393 -0.7569
vn 0.9540 -0.2433 -0.1754
vn 0.9764 0.1156 0.1824
vn 0.9540 -0.2433 0.1754
vn 0.5774 -0.5773 0.5773
vn 0.6879 -0.2124 0.6940
vn 0.6993 -0.6993 0.1479
vn 0.5774 0.5774 0.5774
vn 0.6993 0.6993 0.1479
vn 0.7073 0.0845 0.7018
vn 0.1794 -0.9673 -0.1794
vn 0.5774 -0.5773 -0.5773
vn 0.6993 -0.6993 -0.1479
vn 0.6879 -0.2124 -0.6940
vn 0.5774 0.5774 -0.5774
vn 0.7073 0.0845 -0.7018
vn 0.9764 0.1156 -0.1824
vn 0.6993 0.6993 -0.1479
vn 0.7315 0.1364 0.6681
vn -0.5024 -0.0000 0.8646
vn 0.9632 -0.0000 0.2688
vn 0.7315 0.1364 -0.6681
vn 0.9632 -0.0000 -0.2688
vn -0.5024 -0.0000 -0.8646
vn -0.6644 -0.0969 0.7411
vn -0.4358 -0.3831 0.8144
vn 0.5622 0.5353 0.6304
vn -0.4358 -0.3831 -0.8144
vn 0.5622 0.5353 -0.6304
vn -0.6644 -0.0969 -0.7411
vt 0.650283 0.904577
vt 0.477603 0.429355
vt 0.108901 0.680004
vt 0.440417 0.430144
vt 0.686983 0.906312
vt 0.681586 0.935928
vt 0.444889 0.459965
vt 0.064970 0.639304
vt 0.474339 0.466443
vt 0.104245 0.630482
vt 0.651969 0.941323
vt 0.059149 0.679135
vt 0.048352 0.498936
vt 0.672129 0.452146
vt 0.131445 0.482572
vt 0.369577 0.663300
vt 0.119393 0.567862
vt 0.091344 0.486000
vt 0.098794 0.516882
vt 0.130261 0.522460
vt 0.074393 0.542322
vt 0.669683 0.493651
vt 0.365924 0.608055
vt 0.480179 0.904167
vt 0.110823 0.906609
vt 0.479899 0.102577
vt 0.061742 0.908267
vt 0.478703 0.941590
vt 0.448668 0.936199
vt 0.067996 0.947399
vt 0.447564 0.071941
vt 0.476829 0.065746
vt 0.106758 0.955631
vt 0.443113 0.906192
vt 0.442859 0.101481
vt 0.314339 0.479970
vt 0.672253 0.080051
vt 0.396846 0.494134
vt 0.329383 0.562537
vt 0.369577 0.922112
vt 0.354227 0.482332
vt 0.347741 0.512946
vt 0.669874 0.039037
vt 0.366164 0.976873
vt 0.372111 0.537039
vt 0.317178 0.519692
vt 0.746057 0.035929
vt 0.850780 0.031400
vt 0.759179 0.064203
vt 0.807881 0.033582
vt 0.796093 0.063476
vt 0.759106 0.197301
vt 0.759835 0.265052
vt 0.758832 0.232241
vt 0.745880 0.258769
vt 0.859380 0.260491
vt 0.745398 0.208868
vt 0.858937 0.201929
vt 0.741892 0.235818
vt 0.860106 0.232873
vt 0.819076 0.204966
vt 0.820615 0.257949
vt 0.823444 0.232188
vt 0.804768 0.264699
vt 0.804768 0.194612
vt 0.805628 0.229400
vt 0.649547 0.575679
vt 0.480388 0.101786
vt 0.108901 0.904788
vt 0.686983 0.574005
vt 0.443839 0.100493
vt 0.681511 0.543897
vt 0.448576 0.071312
vt 0.064970 0.945488
vt 0.477513 0.065265
vt 0.104245 0.954310
vt 0.651407 0.538384
vt 0.059149 0.905657
vt 0.042818 0.110912
vt 0.672129 0.079892
vt 0.128246 0.125175
vt 0.369577 0.921492
vt 0.113962 0.039037
vt 0.087801 0.122975
vt 0.094329 0.091293
vt 0.126068 0.084834
vt 0.365924 0.976737
vt 0.068780 0.065866
vt 0.669838 0.039037
vt 0.478226 0.575186
vt 0.110823 0.678183
vt 0.478347 0.430238
vt 0.061743 0.676525
vt 0.476605 0.537222
vt 0.445960 0.542802
vt 0.067996 0.637393
vt 0.446167 0.460689
vt 0.475293 0.467011
vt 0.106758 0.629161
vt 0.441657 0.431226
vt 0.440417 0.573452
vt 0.312628 0.123247
vt 0.396846 0.108292
vt 0.672253 0.452242
vt 0.326404 0.039406
vt 0.369577 0.662680
vt 0.352613 0.120716
vt 0.345908 0.089552
vt 0.366164 0.607919
vt 0.370508 0.064491
vt 0.669928 0.493588
vt 0.314822 0.083157
vt 0.742068 0.970454
vt 0.847533 0.976716
vt 0.755721 0.942196
vt 0.804331 0.973841
vt 0.792883 0.943511
vt 0.757725 0.808197
vt 0.760032 0.739744
vt 0.758055 0.773014
vt 0.745373 0.745969
vt 0.859709 0.745458
vt 0.744116 0.796349
vt 0.858411 0.805021
vt 0.740999 0.769128
vt 0.860106 0.773647
vt 0.818066 0.801371
vt 0.819807 0.748253
vt 0.822699 0.774023
vt 0.805221 0.741694
vt 0.803523 0.811586
vt 0.804872 0.776640
s 1
f 46/68/1 8/14/2 2/2/3
f 10/16/4 16/25/5 3/3/6
f 1/1/7 5/6/8 7/11/9
f 2/2/3 5/7/8 4/4/10
f 3/3/6 5/8/8 6/10/11
f 8/13/2 12/19/12 14/21/13
f 9/15/14 12/19/12 11/18/15
f 10/17/4 12/19/12 13/20/16
f 15/24/17 19/29/18 21/34/19
f 16/25/5 19/30/18 18/27/20
f 17/26/21 19/31/18 20/32/22
f 22/36/23 26/42/24 28/46/25
f 23/38/26 26/42/24 25/41/27
f 24/39/28 26/42/24 27/45/29
f 1/1/7 18/28/20 15/24/17
f 7/12/9 16/25/5 18/27/20
f 8/14/2 6/9/11 2/2/3
f 6/10/11 10/16/4 3/3/6
f 22/36/23 13/20/16 9/15/14
f 28/46/25 10/17/4 13/20/16
f 23/37/26 20/32/22 27/43/29
f 20/33/22 24/40/28 27/44/29
f 17/26/21 67/104/30 61/92/31
f 65/101/32 15/24/17 21/34/19
f 46/68/1 4/4/10 48/71/33
f 55/84/34 9/15/14 11/18/15
f 52/79/35 11/18/15 8/13/2
f 48/70/33 1/1/7 45/67/36
f 67/103/30 25/41/27 69/107/37
f 69/107/37 22/36/23 66/102/38
f 61/92/31 21/35/19 17/26/21
f 53/81/39 22/36/23 9/15/14
f 36/55/40 78/119/41 80/121/42
f 40/62/43 80/122/42 84/128/44
f 30/49/45 37/57/46 29/47/47
f 29/48/47 39/61/48 31/50/49
f 32/51/50 39/61/48 43/65/51
f 32/51/50 33/52/52 30/49/45
f 36/55/40 35/54/53 34/53/54
f 35/54/53 37/57/46 33/52/52
f 40/62/43 44/66/55 41/63/56
f 44/66/55 39/61/48 41/63/56
f 34/53/54 44/66/55 42/64/57
f 35/54/53 43/65/51 44/66/55
f 37/58/46 41/63/56 39/61/48
f 38/60/58 40/62/43 41/63/56
f 42/64/57 84/128/44 86/130/59
f 60/91/60 54/82/61 47/69/62
f 45/67/36 49/72/63 48/70/33
f 46/68/1 49/73/63 50/75/64
f 47/69/62 49/74/63 51/78/65
f 52/79/35 56/85/66 55/84/34
f 53/81/39 56/85/66 57/86/67
f 54/83/61 56/85/66 58/88/68
f 59/90/69 63/95/70 62/94/71
f 60/91/60 63/96/70 64/99/72
f 61/92/31 63/97/70 65/100/32
f 66/102/38 70/108/73 69/107/37
f 67/103/30 70/108/73 71/110/74
f 68/105/75 70/108/73 72/112/76
f 62/94/71 45/67/36 59/90/69
f 60/91/60 51/78/65 62/93/71
f 50/75/64 52/80/35 46/68/1
f 50/76/64 54/82/61 58/87/68
f 57/86/67 66/102/38 53/81/39
f 54/83/61 72/112/76 57/86/67
f 67/104/30 64/98/72 61/92/31
f 68/106/75 64/99/72 71/109/74
f 81/123/77 74/115/78 73/113/79
f 83/127/80 73/114/79 75/116/81
f 76/117/82 83/127/80 75/116/81
f 77/118/83 76/117/82 74/115/78
f 79/120/84 80/121/42 78/119/41
f 79/120/84 81/123/77 82/125/85
f 84/128/44 88/132/86 86/130/59
f 83/127/80 88/132/86 85/129/87
f 88/132/86 78/119/41 86/130/59
f 87/131/88 79/120/84 88/132/86
f 85/129/87 81/124/77 83/127/80
f 84/128/44 82/126/85 85/129/87
f 45/67/36 15/24/17 59/90/69
f 34/53/54 86/130/59 78/119/41
f 46/68/1 52/80/35 8/14/2
f 10/16/4 24/40/28 16/25/5
f 1/1/7 4/5/10 5/6/8
f 2/2/3 6/9/11 5/7/8
f 3/3/6 7/12/9 5/8/8
f 8/13/2 11/18/15 12/19/12
f 9/15/14 13/20/16 12/19/12
f 10/17/4 14/21/13 12/19/12
f 15/24/17 18/28/20 19/29/18
f 16/25/5 20/33/22 19/30/18
f 17/26/21 21/35/19 19/31/18
f 22/36/23 25/41/27 26/42/24
f 23/38/26 27/45/29 26/42/24
f 24/39/28 28/46/25 26/42/24
f 1/1/7 7/11/9 18/28/20
f 7/12/9 3/3/6 16/25/5
f 8/14/2 14/22/13 6/9/11
f 6/10/11 14/23/13 10/16/4
f 22/36/23 28/46/25 13/20/16
f 28/46/25 24/39/28 10/17/4
f 23/37/26 17/26/21 20/32/22
f 20/33/22 16/25/5 24/40/28
f 17/26/21 23/37/26 67/104/30
f 65/101/32 59/90/69 15/24/17
f 46/68/1 2/2/3 4/4/10
f 55/84/34 53/81/39 9/15/14
f 52/79/35 55/84/34 11/18/15
f 48/70/33 4/5/10 1/1/7
f 67/103/30 23/38/26 25/41/27
f 69/107/37 25/41/27 22/36/23
f 61/92/31 65/100/32 21/35/19
f 53/81/39 66/102/38 22/36/23
f 36/55/40 34/53/54 78/119/41
f 40/62/43 36/56/40 80/122/42
f 30/49/45 33/52/52 37/57/46
f 29/48/47 37/58/46 39/61/48
f 32/51/50 31/50/49 39/61/48
f 32/51/50 43/65/51 33/52/52
f 36/55/40 38/59/58 35/54/53
f 35/54/53 38/59/58 37/57/46
f 40/62/43 42/64/57 44/66/55
f 44/66/55 43/65/51 39/61/48
f 34/53/54 35/54/53 44/66/55
f 35/54/53 33/52/52 43/65/51
f 37/58/46 38/60/58 41/63/56
f 38/60/58 36/56/40 40/62/43
f 42/64/57 40/62/43 84/128/44
f 60/91/60 68/106/75 54/82/61
f 45/67/36 51/77/65 49/72/63
f 46/68/1 48/71/33 49/73/63
f 47/69/62 50/76/64 49/74/63
f 52/79/35 58/88/68 56/85/66
f 53/81/39 55/84/34 56/85/66
f 54/83/61 57/86/67 56/85/66
f 59/90/69 65/101/32 63/95/70
f 60/91/60 62/93/71 63/96/70
f 61/92/31 64/98/72 63/97/70
f 66/102/38 72/112/76 70/108/73
f 67/103/30 69/107/37 70/108/73
f 68/105/75 71/110/74 70/108/73
f 62/94/71 51/77/65 45/67/36
f 60/91/60 47/69/62 51/78/65
f 50/75/64 58/89/68 52/80/35
f 50/76/64 47/69/62 54/82/61
f 57/86/67 72/112/76 66/102/38
f 54/83/61 68/105/75 72/112/76
f 67/104/30 71/111/74 64/98/72
f 68/106/75 60/91/60 64/99/72
f 81/123/77 77/118/83 74/115/78
f 83/127/80 81/124/77 73/114/79
f 76/117/82 87/131/88 83/127/80
f 77/118/83 87/131/88 76/117/82
f 79/120/84 82/125/85 80/121/42
f 79/120/84 77/118/83 81/123/77
f 84/128/44 85/129/87 88/132/86
f 83/127/80 87/131/88 88/132/86
f 88/132/86 79/120/84 78/119/41
f 87/131/88 77/118/83 79/120/84
f 85/129/87 82/126/85 81/124/77
f 84/128/44 80/122/42 82/126/85
f 45/67/36 1/1/7 15/24/17
f 34/53/54 42/64/57 86/130/59
