# Blender v2.90.0 OBJ File: ''
# www.blender.org
o picnic_basket
v 0.226847 0.233323 0.175827
v -0.185352 0.014923 0.144705
v 0.185352 0.014923 0.144705
v -0.237964 0.233405 0.164823
v -0.196436 0.014840 -0.138946
v -0.196436 0.014840 0.133678
v -0.229091 0.244123 -0.171725
v 0.229091 0.244123 0.166457
v 0.229091 0.244123 -0.171725
v -0.226847 0.233323 -0.181095
v 0.185352 0.014923 -0.149973
v -0.185352 0.014923 -0.149973
v 0.237964 0.233405 -0.170091
v 0.196436 0.014840 0.133678
v 0.196436 0.014840 -0.138946
v -0.183491 0.004123 0.132257
v -0.226847 0.233323 0.175827
v -0.229091 0.244123 0.166457
v -0.183491 0.004123 -0.137525
v -0.237964 0.233405 -0.170091
v 0.183491 0.004123 0.132257
v 0.237964 0.233405 0.164823
v 0.183491 0.004123 -0.137525
v 0.226847 0.233323 -0.181095
v -0.012000 0.424123 -0.002634
v -0.012000 0.402009 -0.068033
v -0.012000 0.415018 -0.002634
v -0.012000 0.402009 0.062765
v -0.012000 0.410421 0.066249
v -0.012000 0.371402 0.124645
v -0.012000 0.364964 0.118207
v -0.012000 0.309522 0.155253
v -0.012000 0.313006 0.163664
v -0.012000 0.232123 0.174632
v -0.012000 0.232123 0.165665
v -0.012000 0.232123 -0.179900
v -0.012000 0.309522 -0.160520
v -0.012000 0.313006 -0.168932
v -0.012000 0.364964 -0.123475
v -0.012000 0.371402 -0.129913
v -0.012000 0.410421 -0.071517
v 0.012000 0.415018 -0.002634
v 0.012000 0.410421 -0.071517
v 0.012000 0.424123 -0.002634
v 0.012000 0.402009 0.062765
v 0.012000 0.410421 0.066249
v 0.012000 0.364964 0.118207
v 0.012000 0.371402 0.124645
v 0.012000 0.309522 0.155253
v 0.012000 0.313006 0.163664
v 0.012000 0.232123 0.174632
v 0.012000 0.309522 -0.160520
v 0.012000 0.232123 -0.179900
v 0.012000 0.313006 -0.168932
v 0.012000 0.371402 -0.129913
v 0.012000 0.402009 -0.068033
v 0.012000 0.232123 -0.170933
v -0.012000 0.232123 -0.170933
v 0.012000 0.364964 -0.123475
v 0.012000 0.232123 0.165665
vt 0.582651 0.424313
vt 0.352896 0.853609
vt 0.352895 0.467530
vt 0.015899 0.507906
vt 0.332093 0.738106
vt 0.022666 0.733255
vt 0.352438 0.477415
vt 0.000229 0.000229
vt 0.352438 0.000229
vt 0.827757 0.424313
vt 0.598002 0.853609
vt 0.598001 0.467530
vt 0.015899 0.769084
vt 0.332092 0.999284
vt 0.022665 0.994433
vt 0.651586 0.397081
vt 0.669532 0.401551
vt 0.656243 0.414976
vt 0.000229 0.506400
vt 0.011325 0.494742
vt 0.370392 0.402980
vt 0.366467 0.421519
vt 0.352895 0.408011
vt 0.336166 0.477872
vt 0.349392 0.490134
vt 0.332246 0.492836
vt 0.652034 0.018767
vt 0.655960 0.000229
vt 0.669532 0.013737
vt 0.336166 0.739050
vt 0.349392 0.751313
vt 0.332245 0.754014
vt 0.370841 0.024667
vt 0.352895 0.020197
vt 0.366184 0.006772
vt 0.011324 0.755920
vt 0.000229 0.767578
vt 0.006820 0.734160
vt 0.842649 0.899162
vt 0.842649 0.421976
vt 0.597544 0.899162
vt 0.597544 0.421976
vt 0.612448 0.938989
vt 0.545758 0.928588
vt 0.612677 0.929917
vt 0.683848 0.930718
vt 0.683688 0.940364
vt 0.759375 0.941158
vt 0.759486 0.930933
vt 0.840136 0.931069
vt 0.839768 0.942234
vt 0.940539 0.940531
vt 0.938930 0.929995
vt 0.354085 0.927760
vt 0.423814 0.925056
vt 0.423663 0.932493
vt 0.482831 0.926785
vt 0.482504 0.934822
vt 0.545470 0.937117
vt 0.610635 0.972986
vt 0.543981 0.960297
vt 0.611079 0.963651
vt 0.682072 0.976538
vt 0.682460 0.966608
vt 0.758056 0.979661
vt 0.758347 0.969116
vt 0.838660 0.981782
vt 0.838603 0.970538
vt 0.940539 0.973742
vt 0.421601 0.960308
vt 0.352895 0.950452
vt 0.422222 0.952720
vt 0.480907 0.956591
vt 0.543486 0.969072
vt 0.683502 0.904898
vt 0.758921 0.903489
vt 0.839526 0.901446
vt 0.356764 0.900838
vt 0.355586 0.920564
vt 0.424384 0.904361
vt 0.483120 0.905358
vt 0.545839 0.905756
vt 0.582652 0.896826
vt 0.000229 0.477415
vt 0.827758 0.896826
vt 0.349392 0.738593
vt 0.006820 0.995338
vt 0.349392 0.999771
vt 0.938635 0.985068
vt 0.353696 0.958211
vt 0.480367 0.964838
vt 0.612558 0.905632
vt 0.938369 0.899619
vn 0.3552 0.2028 0.9125
vn -0.3093 -0.4692 0.8272
vn 0.3093 -0.4692 0.8272
vn -0.9158 0.1856 0.3563
vn -0.8135 -0.4882 -0.3161
vn -0.8135 -0.4882 0.3161
vn -0.3948 0.8336 -0.3864
vn 0.3948 0.8336 0.3864
vn 0.3948 0.8336 -0.3864
vn -0.3552 0.2028 -0.9125
vn 0.3093 -0.4692 -0.8272
vn -0.3093 -0.4692 -0.8272
vn 0.9158 0.1856 -0.3563
vn 0.8135 -0.4882 0.3161
vn 0.8135 -0.4882 -0.3161
vn -0.2940 -0.9060 0.3044
vn -0.3552 0.2028 0.9125
vn -0.3948 0.8336 0.3864
vn -0.2940 -0.9060 -0.3044
vn -0.9158 0.1856 -0.3563
vn 0.2940 -0.9060 0.3044
vn 0.9158 0.1856 0.3563
vn 0.2940 -0.9060 -0.3044
vn 0.3552 0.2028 -0.9125
vn -0.6657 0.7462 0.0000
vn -0.7538 -0.6071 0.2515
vn -0.7538 -0.6571 0.0000
vn -0.7538 -0.6071 -0.2515
vn -0.6657 0.6894 0.2856
vn -0.6657 0.5276 0.5276
vn -0.7538 -0.4647 -0.4647
vn -0.7616 -0.2291 -0.6062
vn -0.6598 0.2661 0.7028
vn -0.6747 0.0992 0.7314
vn -0.7354 -0.0903 -0.6716
vn -0.6747 0.0992 -0.7314
vn -0.7616 -0.2291 0.6062
vn -0.6598 0.2661 -0.7028
vn -0.7538 -0.4647 0.4647
vn -0.6657 0.5276 -0.5276
vn -0.6657 0.6894 -0.2856
vn 0.7538 -0.6571 -0.0000
vn 0.6657 0.6894 -0.2856
vn 0.6657 0.7462 -0.0000
vn 0.7538 -0.6071 -0.2515
vn 0.6657 0.6894 0.2856
vn 0.7538 -0.4647 -0.4647
vn 0.6657 0.5276 0.5276
vn 0.7616 -0.2291 -0.6062
vn 0.6598 0.2661 0.7028
vn 0.6747 0.0992 0.7314
vn 0.7616 -0.2291 0.6062
vn 0.6747 0.0992 -0.7314
vn 0.6598 0.2661 -0.7028
vn 0.6657 0.5276 -0.5276
vn 0.7538 -0.6071 0.2515
vn 0.7354 -0.0904 0.6716
vn -0.7354 -0.0904 0.6716
vn 0.7538 -0.4647 0.4647
vn 0.7354 -0.0903 -0.6716
s 1
f 1/1/1 2/2/2 3/3/3
f 4/4/4 5/5/5 6/6/6
f 7/7/7 8/8/8 9/9/9
f 10/10/10 11/11/11 12/12/12
f 13/13/13 14/14/14 15/15/15
f 16/16/16 2/17/2 6/18/6
f 17/19/17 18/20/18 4/4/4
f 19/21/19 5/22/5 12/23/12
f 7/24/7 10/25/10 20/26/20
f 21/27/21 14/28/14 3/29/3
f 8/30/8 1/31/1 22/32/22
f 23/33/23 11/34/11 15/35/15
f 9/36/9 13/13/13 24/37/24
f 16/16/16 5/22/5 19/21/19
f 17/19/17 6/6/6 2/38/2
f 7/24/7 4/4/4 18/20/18
f 10/25/10 5/5/5 20/26/20
f 23/33/23 12/23/12 11/34/11
f 9/39/9 10/10/10 7/40/7
f 15/15/15 24/37/24 13/13/13
f 23/33/23 14/28/14 21/27/21
f 8/30/8 13/13/13 9/36/9
f 1/31/1 14/14/14 22/32/22
f 16/16/16 3/29/3 2/17/2
f 18/41/18 1/1/1 8/42/8
f 23/33/23 16/16/16 19/21/19
f 25/43/25 26/44/26 27/45/27
f 25/43/25 28/46/28 29/47/29
f 30/48/30 28/46/28 31/49/31
f 30/48/30 32/50/32 33/51/33
f 34/52/34 32/50/32 35/53/35
f 36/54/36 37/55/37 38/56/38
f 38/56/38 39/57/39 40/58/40
f 40/58/40 26/44/26 41/59/41
f 42/60/42 43/61/43 44/62/44
f 45/63/45 44/62/44 46/64/46
f 47/65/47 46/64/46 48/66/48
f 49/67/49 48/66/48 50/68/50
f 51/69/51 49/67/49 50/68/50
f 52/70/52 53/71/53 54/72/54
f 55/73/55 52/70/52 54/72/54
f 56/74/56 55/73/55 43/61/43
f 50/68/50 30/48/30 33/51/33
f 27/45/27 45/75/45 28/46/28
f 51/69/51 33/51/33 34/52/34
f 45/75/45 31/49/31 28/46/28
f 47/76/47 32/50/32 31/49/31
f 49/77/49 35/53/35 32/50/32
f 54/72/54 36/54/36 38/56/38
f 55/73/55 38/56/38 40/58/40
f 43/61/43 40/58/40 41/59/41
f 57/78/57 37/55/37 58/79/58
f 44/62/44 41/59/41 25/43/25
f 52/80/52 39/57/39 37/55/37
f 46/64/46 25/43/25 29/47/29
f 59/81/59 26/44/26 39/57/39
f 48/66/48 29/47/29 30/48/30
f 56/82/56 27/45/27 26/44/26
f 1/1/1 17/83/17 2/2/2
f 4/4/4 20/26/20 5/5/5
f 7/7/7 18/84/18 8/8/8
f 10/10/10 24/85/24 11/11/11
f 13/13/13 22/32/22 14/14/14
f 16/16/16 6/18/6 5/22/5
f 17/19/17 4/4/4 6/6/6
f 7/24/7 20/26/20 4/4/4
f 10/25/10 12/86/12 5/5/5
f 23/33/23 19/21/19 12/23/12
f 9/39/9 24/85/24 10/10/10
f 15/15/15 11/87/11 24/37/24
f 23/33/23 15/35/15 14/28/14
f 8/30/8 22/32/22 13/13/13
f 1/31/1 3/88/3 14/14/14
f 16/16/16 21/27/21 3/29/3
f 18/41/18 17/83/17 1/1/1
f 23/33/23 21/27/21 16/16/16
f 25/43/25 41/59/41 26/44/26
f 25/43/25 27/45/27 28/46/28
f 30/48/30 29/47/29 28/46/28
f 30/48/30 31/49/31 32/50/32
f 34/52/34 33/51/33 32/50/32
f 36/54/36 58/79/58 37/55/37
f 38/56/38 37/55/37 39/57/39
f 40/58/40 39/57/39 26/44/26
f 42/60/42 56/74/56 43/61/43
f 45/63/45 42/60/42 44/62/44
f 47/65/47 45/63/45 46/64/46
f 49/67/49 47/65/47 48/66/48
f 51/69/51 60/89/60 49/67/49
f 52/70/52 57/90/57 53/71/53
f 55/73/55 59/91/59 52/70/52
f 56/74/56 59/91/59 55/73/55
f 50/68/50 48/66/48 30/48/30
f 27/45/27 42/92/42 45/75/45
f 51/69/51 50/68/50 33/51/33
f 45/75/45 47/76/47 31/49/31
f 47/76/47 49/77/49 32/50/32
f 49/77/49 60/93/60 35/53/35
f 54/72/54 53/71/53 36/54/36
f 55/73/55 54/72/54 38/56/38
f 43/61/43 55/73/55 40/58/40
f 57/78/57 52/80/52 37/55/37
f 44/62/44 43/61/43 41/59/41
f 52/80/52 59/81/59 39/57/39
f 46/64/46 44/62/44 25/43/25
f 59/81/59 56/82/56 26/44/26
f 48/66/48 46/64/46 29/47/29
f 56/82/56 42/92/42 27/45/27
